HIERARCHY
ROOT Hips
{
	OFFSET 0.000000 0.000000 0.000000
	CHANNELS 6 Xposition Yposition Zposition Xrotation Yrotation Zrotation
	JOINT LeftUpLeg_virtual
	{
		OFFSET 0.000000 0.000000 0.000000
		CHANNELS 3 Xrotation Yrotation Zrotation
		JOINT LeftUpLeg
		{
			OFFSET 10.205400 -3.823500 0.155100
			CHANNELS 3 Xrotation Yrotation Zrotation
			JOINT LeftLeg
			{
				OFFSET 0.708757 -12.982077 0.567790
				CHANNELS 3 Xrotation Yrotation Zrotation
				JOINT LeftFoot
				{
					OFFSET -0.708756 -10.717838 -2.184338
					CHANNELS 3 Xrotation Yrotation Zrotation
					JOINT LeftToeBase
					{
						OFFSET 0.108149 -7.191104 7.560241
						CHANNELS 3 Xrotation Yrotation Zrotation
						JOINT LeftToe_End
						{
							OFFSET 0.070230 0.081724 4.490308
							CHANNELS 3 Xrotation Yrotation Zrotation
							End Site
							{
								OFFSET 0 0 0
							}
						}
					}
				}
			}
		}
	}
	JOINT RightUpLeg_virtual
	{
		OFFSET 0.000000 0.000000 0.000000
		CHANNELS 3 Xrotation Yrotation Zrotation
		JOINT RightUpLeg
		{
			OFFSET -10.205400 -3.823500 0.005500
			CHANNELS 3 Xrotation Yrotation Zrotation
			JOINT RightLeg
			{
				OFFSET -0.708756 -12.982134 0.610632
				CHANNELS 3 Xrotation Yrotation Zrotation
				JOINT RightFoot
				{
					OFFSET 0.708754 -10.717769 -1.945823
					CHANNELS 3 Xrotation Yrotation Zrotation
					JOINT RightToeBase
					{
						OFFSET -0.108140 -7.191069 7.372968
						CHANNELS 3 Xrotation Yrotation Zrotation
						JOINT RightToe_End
						{
							OFFSET -0.070227 0.081735 4.479403
							CHANNELS 3 Xrotation Yrotation Zrotation
							End Site
							{
								OFFSET 0 0 0
							}
						}
					}
				}
			}
		}
	}
	JOINT Spine_virtual
	{
		OFFSET 0.000000 0.000000 0.000000
		CHANNELS 3 Xrotation Yrotation Zrotation
		JOINT Spine
		{
			OFFSET 0.000000 6.876099 0.125700
			CHANNELS 3 Xrotation Yrotation Zrotation
			JOINT Spine1
			{
				OFFSET 0.000000 5.730043 0.104720
				CHANNELS 3 Xrotation Yrotation Zrotation
				JOINT Spine1_split
				{
					OFFSET 0.000000 5.730043 0.104720
					CHANNELS 3 Xrotation Yrotation Zrotation
					JOINT Spine2
					{
						OFFSET 0.000000 5.730043 0.104720
						CHANNELS 3 Xrotation Yrotation Zrotation
						JOINT Neck_virtual
						{
							OFFSET 0.000000 0.000000 0.000000
							CHANNELS 3 Xrotation Yrotation Zrotation
							JOINT Neck
							{
								OFFSET 0.000000 10.314075 0.188496
								CHANNELS 3 Xrotation Yrotation Zrotation
								JOINT Head
								{
									OFFSET 0.000000 7.643700 -2.377400
									CHANNELS 3 Xrotation Yrotation Zrotation
									JOINT HeadTop_End
									{
										OFFSET 0.000000 43.788605 -13.619600
										CHANNELS 3 Xrotation Yrotation Zrotation
										End Site
										{
											OFFSET 0 0 0
										}
									}
								}
							}
						}
						JOINT LeftShoulder_virtual
						{
							OFFSET 0.000000 0.000000 0.000000
							CHANNELS 3 Xrotation Yrotation Zrotation
							JOINT LeftShoulder
							{
								OFFSET 2.196100 4.412489 0.087492
								CHANNELS 3 Xrotation Yrotation Zrotation
								JOINT LeftShoulder_split
								{
									OFFSET 2.196100 4.412489 0.087492
									CHANNELS 3 Xrotation Yrotation Zrotation
									JOINT LeftArm
									{
										OFFSET 8.771219 -2.981674 -0.026999
										CHANNELS 3 Xrotation Yrotation Zrotation
										JOINT LeftForeArm
										{
											OFFSET 8.512804 0.000000 -0.000000
											CHANNELS 3 Xrotation Yrotation Zrotation
											JOINT LeftHand
											{
												OFFSET 18.484802 0.000000 -0.000000
												CHANNELS 3 Xrotation Yrotation Zrotation
												End Site
												{
													OFFSET 0 0 0
												}
											}
										}
									}
								}
							}
						}
						JOINT RightShoulder_virtual
						{
							OFFSET 0.000000 0.000000 0.000000
							CHANNELS 3 Xrotation Yrotation Zrotation
							JOINT RightShoulder
							{
								OFFSET -2.196100 4.412496 0.070690
								CHANNELS 3 Xrotation Yrotation Zrotation
								JOINT RightShoulder_split
								{
									OFFSET -2.196100 4.412496 0.070690
									CHANNELS 3 Xrotation Yrotation Zrotation
									JOINT RightArm
									{
										OFFSET -8.771282 -2.981682 -0.094208
										CHANNELS 3 Xrotation Yrotation Zrotation
										JOINT RightForeArm
										{
											OFFSET -8.494598 0.000000 0.000000
											CHANNELS 3 Xrotation Yrotation Zrotation
											JOINT RightHand
											{
												OFFSET -18.483803 0.000000 0.000001
												CHANNELS 3 Xrotation Yrotation Zrotation
												End Site
												{
													OFFSET 0 0 0
												}
											}
										}
									}
								}
							}
						}
					}
				}
			}
		}
	}
}
MOTION
Frames: 6
Frame Time: 0.03333333
0.531786 30.611347 0.383158 0.000000 0.000000 0.000000 -19.520718 -17.474663 -5.330307 -101.883282 -1.084842 33.342477 119.719078 -19.226108 0.694338 -21.795400 -1.152113 29.350788 -21.603496 -0.965419 -6.195709 0.000000 0.000000 0.000000 -19.726718 -20.745496 -5.909972 -109.883878 1.071565 -26.947794 131.135725 26.946251 -8.829628 4.120728 -6.532886 18.726767 -24.171304 11.466650 7.140648 0.000000 0.000000 0.000000 -16.659583 -22.084279 -7.518986 6.009030 6.774978 0.384633 14.862114 1.612173 -1.394872 0.573822 -12.832900 2.062712 0.000000 0.000000 0.000000 20.305475 1.321436 -0.863675 -26.237736 -1.549047 -3.748477 -9.766367 10.063301 4.085724 0.000000 0.000000 0.000000 15.993052 1.703656 -1.101003 2.526268 -4.714152 39.226374 1.504238 -3.053492 -0.222008 -47.526860 -28.796675 -7.339200 -18.919494 -35.780438 0.216550 0.000000 0.000000 0.000000 15.533225 0.991016 -0.970440 10.439257 19.724543 -35.828198 7.044623 3.001945 -0.901244 -56.852961 22.000232 12.223871 -15.451355 38.921591 5.549804 0.000000 0.000000 0.000000 
0.439724 30.116541 0.232615 0.000000 0.000000 0.000000 -21.032681 -16.672176 -5.310977 -103.740130 -0.763469 32.857919 120.678829 -19.499068 0.797280 -19.246751 -0.606364 27.259247 -23.590886 -1.435595 -4.881236 0.000000 0.000000 0.000000 -21.064215 -19.088871 -5.907235 -110.936322 2.326800 -26.494666 130.935669 26.894676 -8.205654 5.837271 -6.820365 18.544496 -25.857708 10.267616 8.651993 0.000000 0.000000 0.000000 -18.935818 -21.797825 -7.506771 6.076649 6.247105 0.533806 14.662454 1.566869 -1.184902 0.803139 -8.781233 2.701242 0.000000 0.000000 0.000000 19.921676 1.150558 -0.660579 -24.729202 -1.069375 -3.396000 -9.345638 11.466776 3.977706 0.000000 0.000000 0.000000 15.989384 1.529480 -0.756119 2.513885 -4.801033 39.575824 -0.664074 -2.780281 0.569873 -50.794058 -27.862503 -6.175605 -18.961771 -33.640765 1.118061 0.000000 0.000000 0.000000 14.935448 0.667591 -0.935641 10.551280 21.132856 -35.615482 6.866345 -0.433322 -0.585618 -58.970351 19.770758 12.767043 -17.823088 41.976259 7.096530 0.000000 0.000000 0.000000 
0.374864 29.713192 0.127071 0.000000 0.000000 0.000000 -22.942554 -15.663465 -5.360005 -105.430882 -0.180522 32.986648 121.566589 -19.710350 1.232928 -13.712309 0.074315 24.334480 -27.741262 -2.104730 -3.619322 0.000000 0.000000 0.000000 -23.347330 -17.024609 -6.038335 -109.794567 2.900527 -27.188032 130.410987 25.993526 -6.904614 6.026569 -7.734999 16.279843 -27.750461 9.398323 10.450996 0.000000 0.000000 0.000000 -21.266381 -20.802318 -7.509498 6.129973 5.324100 0.594067 13.879014 1.342570 -0.728207 4.491591 -5.393674 2.732813 0.000000 0.000000 0.000000 18.611760 0.947844 -0.317250 -23.065411 -0.650468 -2.431178 -9.017552 12.402498 3.233448 0.000000 0.000000 0.000000 14.790974 1.238158 -0.217867 2.641691 -5.292968 40.404360 -1.316500 -3.128082 1.223570 -55.032996 -25.433985 -7.620282 -18.745454 -34.051963 1.928714 0.000000 0.000000 0.000000 13.438792 0.329183 -0.604850 10.372153 22.257356 -35.245463 6.561453 -3.527180 0.177889 -59.035552 18.271779 12.314971 -20.850636 45.030563 8.233617 0.000000 0.000000 0.000000 
0.432211 29.633608 0.010353 0.000000 0.000000 0.000000 -25.058105 -14.201513 -5.317443 -105.999454 0.713322 34.221355 120.966748 -19.726409 1.169744 -7.678209 0.632965 21.912500 -32.458504 -2.702565 -3.177627 0.000000 0.000000 0.000000 -26.262817 -14.860788 -6.134928 -106.816878 2.957678 -28.735801 129.278761 24.615073 -5.670335 5.089090 -8.365747 13.529150 -29.972557 9.013521 12.185450 0.000000 0.000000 0.000000 -23.282491 -19.449027 -7.624651 6.437120 4.218153 0.664550 12.985472 1.028311 -0.175617 7.125024 -0.839201 1.350003 0.000000 0.000000 0.000000 16.938739 0.763349 0.063495 -21.830970 -0.573699 -0.972303 -8.759772 12.785818 2.044217 0.000000 0.000000 0.000000 13.308581 0.844811 0.395832 2.818539 -5.943651 41.050253 -0.779214 -3.324940 2.169390 -58.861655 -21.957537 -11.200362 -18.390477 -35.937139 2.637654 0.000000 0.000000 0.000000 11.795663 0.069646 -0.046421 10.098455 23.052035 -34.872538 5.917383 -4.754597 0.672958 -57.206461 17.782771 12.185466 -23.469705 48.048912 8.463264 0.000000 0.000000 0.000000 
0.528072 29.918802 -0.255610 0.000000 0.000000 0.000000 -27.604819 -12.873679 -5.314879 -104.549658 1.362500 35.897521 118.572111 -20.058155 1.039512 -1.687151 1.122936 18.636349 -36.964280 -3.024085 -3.378263 0.000000 0.000000 0.000000 -29.241447 -12.332275 -5.843728 -101.777202 2.506241 -30.295178 127.464471 23.278921 -5.361269 3.357787 -7.858088 11.050641 -34.547865 8.932799 13.624047 0.000000 0.000000 0.000000 -25.275479 -17.920890 -7.854782 7.165393 3.222986 0.826263 12.505670 0.613129 0.349851 8.056434 2.581129 0.554197 0.000000 0.000000 0.000000 15.814004 0.577099 0.394235 -21.436559 -1.170537 0.660274 -8.168627 12.706588 0.740768 0.000000 0.000000 0.000000 12.364466 0.456609 0.911412 2.891422 -6.359916 41.039704 0.884561 -2.962604 3.536783 -62.098475 -17.924356 -16.183080 -18.217168 -37.464947 3.344365 0.000000 0.000000 0.000000 10.876637 -0.097854 0.614959 9.704532 23.462256 -34.719481 5.339418 -3.827909 0.903514 -54.485119 18.162421 13.006290 -24.595441 50.367587 7.162891 0.000000 0.000000 0.000000 
0.639686 30.552151 -0.692558 0.000000 0.000000 0.000000 -30.652615 -12.122185 -5.436469 -100.667795 1.779619 37.619674 114.653454 -20.777762 1.292242 3.870144 1.269874 14.261076 -41.641071 -3.114765 -3.801697 0.000000 0.000000 0.000000 -31.707644 -10.149904 -5.296424 -95.283407 1.401632 -31.340719 124.726125 21.992162 -5.669539 2.439447 -6.453385 9.002918 -42.169349 8.733117 14.726607 0.000000 0.000000 0.000000 -27.804056 -16.371974 -8.085421 8.400211 2.680072 1.118121 13.013763 0.207411 0.640035 7.445935 3.959449 -0.202957 0.000000 0.000000 0.000000 16.186572 0.365228 0.512285 -21.653768 -2.404069 2.040372 -6.775915 13.007783 -0.281377 0.000000 0.000000 0.000000 12.843262 0.107069 1.163598 2.739786 -6.234371 39.863614 2.443364 -1.267667 4.586847 -64.719669 -14.372323 -21.377285 -18.415527 -37.856026 4.178777 0.000000 0.000000 0.000000 11.462488 -0.231971 1.167740 9.163935 23.715646 -34.852399 4.285957 -1.598870 0.733763 -52.239906 19.040431 15.022649 -23.374183 51.317250 3.864010 0.000000 0.000000 0.000000 
